<mxfile host="app.diagrams.net" modified="2021-12-19T12:29:39.074Z" agent="5.0 (Windows NT 10.0; Win64; x64) AppleWebKit/537.36 (KHTML, like Gecko) Chrome/96.0.4664.55 Safari/537.36 Edg/96.0.1054.43" etag="8D4qdobyJ2m7Y6wY5l3d" version="15.9.3" type="github">
  <diagram name="Page-1" id="e7e014a7-5840-1c2e-5031-d8a46d1fe8dd">
    <mxGraphModel dx="1564" dy="783" grid="0" gridSize="10" guides="1" tooltips="1" connect="1" arrows="1" fold="1" page="0" pageScale="1" pageWidth="1169" pageHeight="826" background="none" math="0" shadow="0">
      <root>
        <mxCell id="0" />
        <mxCell id="1" parent="0" />
        <mxCell id="2" value="用户" style="swimlane;whiteSpace=wrap" parent="1" vertex="1">
          <mxGeometry x="164.5" y="128" width="280" height="570" as="geometry" />
        </mxCell>
        <mxCell id="etyy6QZv46rzQm5Fz_pf-41" value="查看订单" style="html=1;align=center;verticalAlign=top;rounded=1;absoluteArcSize=1;arcSize=140;dashed=0;" vertex="1" parent="2">
          <mxGeometry x="70" y="142" width="140" height="40" as="geometry" />
        </mxCell>
        <mxCell id="etyy6QZv46rzQm5Fz_pf-48" style="edgeStyle=orthogonalEdgeStyle;rounded=0;orthogonalLoop=1;jettySize=auto;html=1;exitX=0.5;exitY=1;exitDx=0;exitDy=0;entryX=0.479;entryY=0.293;entryDx=0;entryDy=0;entryPerimeter=0;" edge="1" parent="2" source="etyy6QZv46rzQm5Fz_pf-42" target="etyy6QZv46rzQm5Fz_pf-41">
          <mxGeometry relative="1" as="geometry" />
        </mxCell>
        <mxCell id="etyy6QZv46rzQm5Fz_pf-42" value="" style="ellipse;fillColor=#000000;strokeColor=none;" vertex="1" parent="2">
          <mxGeometry x="122.5" y="67" width="30" height="30" as="geometry" />
        </mxCell>
        <mxCell id="etyy6QZv46rzQm5Fz_pf-53" style="edgeStyle=orthogonalEdgeStyle;rounded=0;orthogonalLoop=1;jettySize=auto;html=1;exitX=0.5;exitY=1;exitDx=0;exitDy=0;entryX=0.5;entryY=0;entryDx=0;entryDy=0;" edge="1" parent="2" source="etyy6QZv46rzQm5Fz_pf-44" target="etyy6QZv46rzQm5Fz_pf-46">
          <mxGeometry relative="1" as="geometry" />
        </mxCell>
        <mxCell id="etyy6QZv46rzQm5Fz_pf-44" value="获得订单具体信息" style="html=1;align=center;verticalAlign=top;rounded=1;absoluteArcSize=1;arcSize=140;dashed=0;" vertex="1" parent="2">
          <mxGeometry x="67.5" y="352" width="140" height="40" as="geometry" />
        </mxCell>
        <mxCell id="etyy6QZv46rzQm5Fz_pf-50" value="" style="edgeStyle=orthogonalEdgeStyle;rounded=0;orthogonalLoop=1;jettySize=auto;html=1;" edge="1" parent="2" source="etyy6QZv46rzQm5Fz_pf-43" target="etyy6QZv46rzQm5Fz_pf-44">
          <mxGeometry relative="1" as="geometry" />
        </mxCell>
        <mxCell id="etyy6QZv46rzQm5Fz_pf-43" value="选择订单" style="html=1;align=center;verticalAlign=top;rounded=1;absoluteArcSize=1;arcSize=140;dashed=0;" vertex="1" parent="2">
          <mxGeometry x="67.5" y="251" width="140" height="40" as="geometry" />
        </mxCell>
        <mxCell id="etyy6QZv46rzQm5Fz_pf-46" value="" style="ellipse;html=1;shape=endState;fillColor=#000000;strokeColor=#000000;" vertex="1" parent="2">
          <mxGeometry x="122.5" y="449" width="30" height="30" as="geometry" />
        </mxCell>
        <mxCell id="3" value="商城" style="swimlane;whiteSpace=wrap" parent="1" vertex="1">
          <mxGeometry x="444.5" y="128" width="280" height="570" as="geometry" />
        </mxCell>
        <mxCell id="etyy6QZv46rzQm5Fz_pf-45" value="显示订单列表" style="html=1;align=center;verticalAlign=top;rounded=1;absoluteArcSize=1;arcSize=140;dashed=0;" vertex="1" parent="3">
          <mxGeometry x="74.5" y="144" width="140" height="40" as="geometry" />
        </mxCell>
        <mxCell id="etyy6QZv46rzQm5Fz_pf-49" style="edgeStyle=orthogonalEdgeStyle;rounded=0;orthogonalLoop=1;jettySize=auto;html=1;exitX=0.5;exitY=1;exitDx=0;exitDy=0;" edge="1" parent="1" source="etyy6QZv46rzQm5Fz_pf-41">
          <mxGeometry relative="1" as="geometry">
            <mxPoint x="304.42857142857144" y="371.7142857142858" as="targetPoint" />
          </mxGeometry>
        </mxCell>
        <mxCell id="etyy6QZv46rzQm5Fz_pf-51" style="edgeStyle=orthogonalEdgeStyle;rounded=0;orthogonalLoop=1;jettySize=auto;html=1;exitX=1;exitY=0.5;exitDx=0;exitDy=0;" edge="1" parent="1" source="etyy6QZv46rzQm5Fz_pf-41">
          <mxGeometry relative="1" as="geometry">
            <mxPoint x="518.7142857142858" y="289.57142857142867" as="targetPoint" />
          </mxGeometry>
        </mxCell>
        <mxCell id="etyy6QZv46rzQm5Fz_pf-52" style="edgeStyle=orthogonalEdgeStyle;rounded=0;orthogonalLoop=1;jettySize=auto;html=1;exitX=0.25;exitY=1;exitDx=0;exitDy=0;entryX=1;entryY=0.5;entryDx=0;entryDy=0;" edge="1" parent="1" source="etyy6QZv46rzQm5Fz_pf-45" target="etyy6QZv46rzQm5Fz_pf-43">
          <mxGeometry relative="1" as="geometry" />
        </mxCell>
      </root>
    </mxGraphModel>
  </diagram>
</mxfile>
